<svg width="16" height="16" viewBox="0 0 16 16" fill="none" xmlns="http://www.w3.org/2000/svg">
<g clip-path="url(#clip0_115_66)">
<path d="M15.0311 8.16183C15.0311 7.64214 14.9844 7.14243 14.8978 6.66272H7.99524V9.50103H11.9396C11.7663 10.4138 11.2466 11.1867 10.4671 11.7064V13.552H12.8457C14.2315 12.2727 15.0311 10.3938 15.0311 8.16183Z" fill="#4285F4"/>
<path d="M7.99526 15.3242C9.97409 15.3242 11.6331 14.6713 12.8457 13.5519L10.4671 11.7064C9.81418 12.1461 8.98134 12.4126 7.99526 12.4126C6.08973 12.4126 4.47069 11.1267 3.89104 9.39441H1.45248V11.2866C2.65843 13.6785 5.1303 15.3242 7.99526 15.3242Z" fill="#34A853"/>
<path d="M3.89101 9.38779C3.74443 8.94805 3.65782 8.48166 3.65782 7.99529C3.65782 7.50891 3.74443 7.04252 3.89101 6.60278V4.71057H1.45246C0.952756 5.69665 0.66626 6.80932 0.66626 7.99529C0.66626 9.18125 0.952756 10.2939 1.45246 11.28L3.35133 9.80088L3.89101 9.38779Z" fill="#FBBC05"/>
<path d="M7.99526 3.58453C9.07462 3.58453 10.0341 3.95764 10.8003 4.67721L12.899 2.57846C11.6264 1.39249 9.97409 0.66626 7.99526 0.66626C5.1303 0.66626 2.65843 2.31195 1.45248 4.71052L3.89104 6.60273C4.47069 4.87043 6.08973 3.58453 7.99526 3.58453Z" fill="#EA4335"/>
</g>
<defs>
<clipPath id="clip0_115_66">
<rect width="15.9905" height="15.9905" fill="white"/>
</clipPath>
</defs>
</svg>
