<svg width="16" height="16" viewBox="0 0 16 16" fill="none" xmlns="http://www.w3.org/2000/svg">
<path d="M10.6604 5.3302C11.7206 5.3302 12.7374 5.75138 13.4871 6.50108C14.2368 7.25078 14.658 8.2676 14.658 9.32783V13.9917H11.9929V9.32783C11.9929 8.97442 11.8525 8.63548 11.6026 8.38558C11.3527 8.13568 11.0138 7.99529 10.6604 7.99529C10.3069 7.99529 9.968 8.13568 9.7181 8.38558C9.4682 8.63548 9.32781 8.97442 9.32781 9.32783V13.9917H6.66272V9.32783C6.66272 8.2676 7.0839 7.25078 7.8336 6.50108C8.5833 5.75138 9.60012 5.3302 10.6604 5.3302Z" stroke="white" stroke-width="1.33254" stroke-linecap="round" stroke-linejoin="round"/>
<path d="M3.99764 5.99646H1.33255V13.9917H3.99764V5.99646Z" stroke="white" stroke-width="1.33254" stroke-linecap="round" stroke-linejoin="round"/>
<path d="M2.66509 3.99761C3.40104 3.99761 3.99764 3.40101 3.99764 2.66506C3.99764 1.92912 3.40104 1.33252 2.66509 1.33252C1.92915 1.33252 1.33255 1.92912 1.33255 2.66506C1.33255 3.40101 1.92915 3.99761 2.66509 3.99761Z" stroke="white" stroke-width="1.33254" stroke-linecap="round" stroke-linejoin="round"/>
</svg>
