<svg width="16" height="16" viewBox="0 0 16 16" fill="none" xmlns="http://www.w3.org/2000/svg">
<path d="M1.37361 8.22561C1.31809 8.07605 1.31809 7.91153 1.37361 7.76197C1.91432 6.4509 2.83214 5.3299 4.01073 4.54109C5.18931 3.75227 6.57557 3.33118 7.99377 3.33118C9.41196 3.33118 10.7982 3.75227 11.9768 4.54109C13.1554 5.3299 14.0732 6.4509 14.6139 7.76197C14.6694 7.91153 14.6694 8.07605 14.6139 8.22561C14.0732 9.53668 13.1554 10.6577 11.9768 11.4465C10.7982 12.2353 9.41196 12.6564 7.99377 12.6564C6.57557 12.6564 5.18931 12.2353 4.01073 11.4465C2.83214 10.6577 1.91432 9.53668 1.37361 8.22561Z" stroke="#7D99B0" stroke-width="1.33229" stroke-linecap="round" stroke-linejoin="round"/>
<path d="M7.99374 9.99224C9.09744 9.99224 9.99218 9.09751 9.99218 7.9938C9.99218 6.89009 9.09744 5.99536 7.99374 5.99536C6.89003 5.99536 5.9953 6.89009 5.9953 7.9938C5.9953 9.09751 6.89003 9.99224 7.99374 9.99224Z" stroke="#7D99B0" stroke-width="1.33229" stroke-linecap="round" stroke-linejoin="round"/>
</svg>
