<svg width="16" height="16" viewBox="0 0 16 16" fill="none" xmlns="http://www.w3.org/2000/svg">
<g clip-path="url(#clip0_127_525)">
<path d="M7.14973 3.38135C8.70144 3.19643 10.271 3.52445 11.6188 4.31532C12.9666 5.10619 14.0185 6.31644 14.6139 7.76126C14.6694 7.91082 14.6694 8.07534 14.6139 8.2249C14.3691 8.81843 14.0455 9.37633 13.652 9.8836" stroke="#7D99B0" stroke-width="1.33229" stroke-linecap="round" stroke-linejoin="round"/>
<path d="M9.38201 9.43126C9.0051 9.79529 8.50029 9.99672 7.9763 9.99217C7.45232 9.98762 6.95109 9.77744 6.58056 9.40692C6.21003 9.03639 5.99986 8.53516 5.99531 8.01117C5.99075 7.48719 6.19219 6.98238 6.55622 6.60547" stroke="#7D99B0" stroke-width="1.33229" stroke-linecap="round" stroke-linejoin="round"/>
<path d="M11.6436 11.6569C10.7599 12.1803 9.77401 12.5076 8.75275 12.6164C7.73148 12.7252 6.69875 12.6131 5.72463 12.2876C4.75051 11.9622 3.85779 11.431 3.10706 10.7301C2.35633 10.0292 1.76514 9.17506 1.37361 8.22556C1.31809 8.076 1.31809 7.91149 1.37361 7.76193C1.96423 6.32962 3.00345 5.12748 4.33529 4.33594" stroke="#7D99B0" stroke-width="1.33229" stroke-linecap="round" stroke-linejoin="round"/>
<path d="M1.33229 1.33228L14.6552 14.6552" stroke="#7D99B0" stroke-width="1.33229" stroke-linecap="round" stroke-linejoin="round"/>
</g>
<defs>
<clipPath id="clip0_127_525">
<rect width="15.9875" height="15.9875" fill="white"/>
</clipPath>
</defs>
</svg>
